<svg width="20" height="20" viewBox="0 0 20 20" fill="none" xmlns="http://www.w3.org/2000/svg">
<path d="M17.4242 9.26658C17.4242 13.3416 14.4659 17.1582 10.4242 18.2749C10.1492 18.3499 9.84921 18.3499 9.57421 18.2749C5.53255 17.1582 2.57422 13.3416 2.57422 9.26658V5.60824C2.57422 4.92491 3.0909 4.14991 3.73256 3.89158L8.37421 1.9916C9.41588 1.5666 10.5909 1.5666 11.6325 1.9916L16.2742 3.89158C16.9076 4.14991 17.4326 4.92491 17.4326 5.60824L17.4242 9.26658Z" stroke="#868C98" stroke-width="1.25" stroke-linecap="round" stroke-linejoin="round"/>
<path d="M10.0007 10.4168C10.9211 10.4168 11.6673 9.67064 11.6673 8.75016C11.6673 7.82969 10.9211 7.0835 10.0007 7.0835C9.08018 7.0835 8.33398 7.82969 8.33398 8.75016C8.33398 9.67064 9.08018 10.4168 10.0007 10.4168Z" stroke="#868C98" stroke-width="1.25" stroke-miterlimit="10" stroke-linecap="round" stroke-linejoin="round"/>
<path d="M10 10.417V12.917" stroke="#868C98" stroke-width="1.25" stroke-miterlimit="10" stroke-linecap="round" stroke-linejoin="round"/>
</svg>
