<svg width="24" height="24" viewBox="0 0 24 24" fill="none" xmlns="http://www.w3.org/2000/svg">
<path d="M18.0001 7.16C17.9401 7.15 17.8701 7.15 17.8101 7.16C16.4301 7.11 15.3301 5.98 15.3301 4.58C15.3301 3.15 16.4801 2 17.9101 2C19.3401 2 20.4901 3.16 20.4901 4.58C20.4801 5.98 19.3801 7.11 18.0001 7.16Z" stroke="#868C98" stroke-width="1.5" stroke-linecap="round" stroke-linejoin="round"/>
<path d="M16.9714 14.4402C18.3414 14.6702 19.8514 14.4302 20.9114 13.7202C22.3214 12.7802 22.3214 11.2402 20.9114 10.3002C19.8414 9.59016 18.3114 9.35016 16.9414 9.59016" stroke="#868C98" stroke-width="1.5" stroke-linecap="round" stroke-linejoin="round"/>
<path d="M5.97047 7.16C6.03047 7.15 6.10047 7.15 6.16047 7.16C7.54047 7.11 8.64047 5.98 8.64047 4.58C8.64047 3.15 7.49047 2 6.06047 2C4.63047 2 3.48047 3.16 3.48047 4.58C3.49047 5.98 4.59047 7.11 5.97047 7.16Z" stroke="#868C98" stroke-width="1.5" stroke-linecap="round" stroke-linejoin="round"/>
<path d="M7.0014 14.4402C5.6314 14.6702 4.12141 14.4302 3.06141 13.7202C1.65141 12.7802 1.65141 11.2402 3.06141 10.3002C4.13141 9.59016 5.6614 9.35016 7.0314 9.59016" stroke="#868C98" stroke-width="1.5" stroke-linecap="round" stroke-linejoin="round"/>
<path d="M11.9981 14.6302C11.9381 14.6202 11.8681 14.6202 11.8081 14.6302C10.4281 14.5802 9.32812 13.4502 9.32812 12.0502C9.32812 10.6202 10.4781 9.47021 11.9081 9.47021C13.3381 9.47021 14.4881 10.6302 14.4881 12.0502C14.4781 13.4502 13.3781 14.5902 11.9981 14.6302Z" stroke="#868C98" stroke-width="1.5" stroke-linecap="round" stroke-linejoin="round"/>
<path d="M9.08875 17.7804C7.67875 18.7204 7.67875 20.2603 9.08875 21.2003C10.6888 22.2703 13.3087 22.2703 14.9087 21.2003C16.3187 20.2603 16.3187 18.7204 14.9087 17.7804C13.3187 16.7204 10.6888 16.7204 9.08875 17.7804Z" stroke="#868C98" stroke-width="1.5" stroke-linecap="round" stroke-linejoin="round"/>
</svg>
