<svg width="20" height="20" viewBox="0 0 20 20" fill="none" xmlns="http://www.w3.org/2000/svg">
<path d="M15.3422 15.0752L12.9922 17.4252" stroke="#868C98" stroke-width="1.25" stroke-linecap="round" stroke-linejoin="round"/>
<path d="M15.3422 17.4252L12.9922 15.0752" stroke="#868C98" stroke-width="1.25" stroke-linecap="round" stroke-linejoin="round"/>
<path d="M10.1322 9.05817C10.0488 9.04984 9.94883 9.04984 9.85716 9.05817C7.87383 8.9915 6.29883 7.3665 6.29883 5.3665C6.29883 3.32484 7.94883 1.6665 9.99883 1.6665C12.0405 1.6665 13.6988 3.32484 13.6988 5.3665C13.6905 7.3665 12.1155 8.9915 10.1322 9.05817Z" stroke="#868C98" stroke-width="1.25" stroke-linecap="round" stroke-linejoin="round"/>
<path d="M10 18.1751C8.48333 18.1751 6.975 17.7917 5.825 17.0251C3.80833 15.6751 3.80833 13.4751 5.825 12.1334C8.11667 10.6001 11.875 10.6001 14.1667 12.1334" stroke="#868C98" stroke-width="1.25" stroke-linecap="round" stroke-linejoin="round"/>
</svg>
